<svg width="50" height="50" viewBox="0 0 50 50" fill="none" xmlns="http://www.w3.org/2000/svg">
<path d="M43.75 20.8334C43.75 35.4167 25 47.9167 25 47.9167C25 47.9167 6.25 35.4167 6.25 20.8334C6.25 15.8606 8.22544 11.0914 11.7417 7.57512C15.2581 4.05881 20.0272 2.08337 25 2.08337C29.9728 2.08337 34.7419 4.05881 38.2582 7.57512C41.7746 11.0914 43.75 15.8606 43.75 20.8334Z" fill="#FFC665" stroke="white" stroke-width="2" stroke-linecap="round" stroke-linejoin="round"/>
<path d="M25 27.0834C28.4518 27.0834 31.25 24.2852 31.25 20.8334C31.25 17.3816 28.4518 14.5834 25 14.5834C21.5482 14.5834 18.75 17.3816 18.75 20.8334C18.75 24.2852 21.5482 27.0834 25 27.0834Z" stroke="white" stroke-width="2" stroke-linecap="round" stroke-linejoin="round"/>
</svg>
